<svg xmlns="http://www.w3.org/2000/svg" width="354" height="354" xml:space="preserve">
	<g fill="none" stroke-width="12.3" stroke-linecap="round">
		<g stroke="#ED1C24"><path d="M124 202V24M124 24H35v178h89M124 202h89V24h-89"/></g>
		<g stroke="#1F8EEA"><path d="M233 208V30M233 30h-89v178h89M233 208h89V30h-89"/></g>
	</g>
	<path fill="#1F8EEA" d="M123 272c-6 0-10 2-14 6s-6 8-6 14c0 5 2 10 6 13 4 4 8 6 14 6 5 0 9-2 13-6 4-3 6-8 6-13 0-6-2-10-6-14s-8-6-13-6z"/>
	<path fill="none" stroke="#1F8EEA" stroke-width="9.7" stroke-linecap="round" stroke-linejoin="round" d="M103 262c-21 0-40 7-55 23l-10 11 10 11c15 15 34 23 55 23 22 0 41-8 56-23l9-11-9-12a76 76 0 0 0-56-22"/>
	<path fill="#ED1C24" d="M234 272c6 0 10 2 14 6s6 8 6 14c0 5-2 10-6 13-4 4-8 6-14 6-5 0-10-2-13-6-4-3-6-8-6-13 0-6 2-10 6-14 3-4 8-6 13-6z"/>
	<path fill="none" stroke="#ED1C24" stroke-width="9.7" stroke-linecap="round" stroke-linejoin="round" d="M253 262a76 76 0 0 1 65 34l-9 11a76 76 0 0 1-56 23c-21 0-40-8-55-23l-10-11 10-12c15-15 34-22 55-22"/>
</svg>
